/* XPM */
static char * thunar_sendto_shredder_xpm[] = {
"48 48 563 2",
"  	c None",
". 	c #8D8E8A",
"+ 	c #888A85",
"@ 	c #8C8F8A",
"# 	c #F8F8F8",
"$ 	c #F7F7F7",
"% 	c #F6F6F6",
"& 	c #EAEAEA",
"* 	c #E9E9E9",
"= 	c #E8E8E8",
"- 	c #E7E7E7",
"; 	c #E6E6E6",
"> 	c #CDCDCD",
", 	c #C7C7C7",
"' 	c #C6C6C6",
") 	c #C5C5C5",
"! 	c #C9C9C9",
"~ 	c #E4E4E4",
"{ 	c #F5F5F5",
"] 	c #E5E5E5",
"^ 	c #E3E3E3",
"/ 	c #E2E2E2",
"( 	c #F4F4F4",
"_ 	c #244E8C",
": 	c #244E8A",
"< 	c #214C88",
"[ 	c #214C89",
"} 	c #C4C4C4",
"| 	c #C3C3C3",
"1 	c #E1E1E1",
"2 	c #E0E0E0",
"3 	c #F3F3F3",
"4 	c #888A86",
"5 	c #224C87",
"6 	c #204A87",
"7 	c #204A88",
"8 	c #244F8B",
"9 	c #234E8B",
"0 	c #3D6BAA",
"a 	c #5283C3",
"b 	c #5587C6",
"c 	c #82847F",
"d 	c #D8D8D8",
"e 	c #D7D7D7",
"f 	c #D6D6D6",
"g 	c #D5D5D5",
"h 	c #D4D4D4",
"i 	c #828580",
"j 	c #5A8BCA",
"k 	c #598BCB",
"l 	c #588AC9",
"m 	c #4A7AB9",
"n 	c #588ACA",
"o 	c #7B7D78",
"p 	c #DCDCDC",
"q 	c #CBCBCB",
"r 	c #B3B3B3",
"s 	c #AFAFAF",
"t 	c #AEAEAE",
"u 	c #ADADAD",
"v 	c #B0B0B0",
"w 	c #C8C8C8",
"x 	c #DBDBDB",
"y 	c #7B7E79",
"z 	c #3866A2",
"A 	c #234C8B",
"B 	c #214B89",
"C 	c #3966A3",
"D 	c #747672",
"E 	c #D0D0D0",
"F 	c #BEBEBE",
"G 	c #BDBDBD",
"H 	c #BCBCBC",
"I 	c #BBBBBB",
"J 	c #BABABA",
"K 	c #CECECE",
"L 	c #747773",
"M 	c #224D89",
"N 	c #234D89",
"O 	c #4F7FBF",
"P 	c #5A8BCB",
"Q 	c #4E7AB2",
"R 	c #111B27",
"S 	c #6D6F6B",
"T 	c #B1B1B1",
"U 	c #C1C1C1",
"V 	c #2F4968",
"W 	c #315D9C",
"X 	c #2A5490",
"Y 	c #6291CE",
"Z 	c #406492",
"` 	c #253954",
" .	c #666864",
"..	c #686966",
"+.	c #6C6E6B",
"@.	c #334E70",
"#.	c #5280BB",
"$.	c #4B7CBB",
"%.	c #234D8B",
"&.	c #4974B0",
"*.	c #6392CE",
"=.	c #2A5693",
"-.	c #224C8A",
";.	c #6994CC",
">.	c #5F8FCD",
",.	c #735B85",
"'.	c #A10E14",
").	c #A40203",
"!.	c #A30B0F",
"~.	c #7B4D70",
"{.	c #4776B4",
"].	c #244D8B",
"^.	c #35609A",
"/.	c #769FD4",
"(.	c #C44849",
"_.	c #DE3838",
":.	c #EE2A2A",
"<.	c #E13434",
"[.	c #C74A4A",
"}.	c #5E88C6",
"|.	c #6090CD",
"1.	c #27518E",
"2.	c #6088BD",
"3.	c #6D99D1",
"4.	c #B73F45",
"5.	c #E68585",
"6.	c #EC9797",
"7.	c #E98888",
"8.	c #C24547",
"9.	c #5B87C5",
"0.	c #4874B0",
"a.	c #7C9FCE",
"b.	c #5988C5",
"c.	c #5283C2",
"d.	c #5977B0",
"e.	c #7B4160",
"f.	c #8B2B40",
"g.	c #7F3C59",
"h.	c #5D71A7",
"i.	c #5887C4",
"j.	c #5E89C1",
"k.	c #224D8A",
"l.	c #7E9FCA",
"m.	c #4E7CB7",
"n.	c #4777B4",
"o.	c #4B7AB5",
"p.	c #648BBF",
"q.	c #214B88",
"r.	c #214C8A",
"s.	c #6C8DB9",
"t.	c #5B82B5",
"u.	c #3C6BA7",
"v.	c #4572AB",
"w.	c #5F84B5",
"x.	c #335B92",
"y.	c #7290B8",
"z.	c #829DC1",
"A.	c #819CC0",
"B.	c #809CC0",
"C.	c #7F9BBF",
"D.	c #7E9BBF",
"E.	c #7E9ABF",
"F.	c #7D99BE",
"G.	c #7C99BE",
"H.	c #7B98BD",
"I.	c #7A97BD",
"J.	c #7996BC",
"K.	c #7896BC",
"L.	c #7795BB",
"M.	c #7694BB",
"N.	c #7593BA",
"O.	c #7492BA",
"P.	c #7392B9",
"Q.	c #7291B9",
"R.	c #7190B8",
"S.	c #708FB8",
"T.	c #6F8FB7",
"U.	c #6E8EB7",
"V.	c #6D8DB7",
"W.	c #4E75A7",
"X.	c #406AA0",
"Y.	c #43699D",
"Z.	c #224C89",
"`.	c #204A86",
" +	c #214A86",
".+	c #224B88",
"++	c #254E8A",
"@+	c #214B87",
"#+	c #A4A5A0",
"$+	c #7D8079",
"%+	c #848782",
"&+	c #80827D",
"*+	c #BFBFBE",
"=+	c #BFC0BF",
"-+	c #D1D2D1",
";+	c #B8B9B8",
">+	c #ACADAB",
",+	c #D2D2D1",
"'+	c #A5A6A4",
")+	c #B0B1AF",
"!+	c #CBCBCA",
"~+	c #A3A4A1",
"{+	c #D3D3D3",
"]+	c #A3A5A3",
"^+	c #A2A3A2",
"/+	c #A2A2A1",
"(+	c #A1A2A0",
"_+	c #6F716C",
":+	c #7B7E78",
"<+	c #90928D",
"[+	c #B1B2AD",
"}+	c #B5B6B1",
"|+	c #C4C5C1",
"1+	c #60625E",
"2+	c #A7A8A4",
"3+	c #80827B",
"4+	c #868983",
"5+	c #8B8E88",
"6+	c #B4B5B3",
"7+	c #C9CAC9",
"8+	c #C8C9C8",
"9+	c #BDBEBC",
"0+	c #ABACAA",
"a+	c #C7C7C6",
"b+	c #BCBDBC",
"c+	c #B1B1B0",
"d+	c #CDCDCC",
"e+	c #9B9C99",
"f+	c #A1A4A0",
"g+	c #A2A3A1",
"h+	c #9FA09E",
"i+	c #9EA09E",
"j+	c #9E9E9D",
"k+	c #7A7D79",
"l+	c #80837D",
"m+	c #999B97",
"n+	c #B3B4B1",
"o+	c #BCBDB8",
"p+	c #C3C3C0",
"q+	c #585A58",
"r+	c #AAACA7",
"s+	c #83867F",
"t+	c #8B8C88",
"u+	c #8F928C",
"v+	c #8C9089",
"w+	c #AFB1AE",
"x+	c #CFD0CF",
"y+	c #C4C5C4",
"z+	c #C1C2C0",
"A+	c #ADAEAC",
"B+	c #C1C1C0",
"C+	c #B5B6B4",
"D+	c #CCCCCC",
"E+	c #969795",
"F+	c #8A8D89",
"G+	c #8A8D87",
"H+	c #A4A7A3",
"I+	c #B8BAB5",
"J+	c #C3C4C1",
"K+	c #555753",
"L+	c #ACB0AA",
"M+	c #858881",
"N+	c #92968F",
"O+	c #90938D",
"P+	c #B0B2AF",
"Q+	c #D1D1D1",
"R+	c #C4C4C3",
"S+	c #C3C3C1",
"T+	c #C9CBC9",
"U+	c #BBBBBA",
"V+	c #989A97",
"W+	c #A5A7A3",
"X+	c #A5A6A3",
"Y+	c #90918D",
"Z+	c #B0B1AB",
"`+	c #BEC1BC",
" @	c #CCCECA",
".@	c #C0C1BF",
"+@	c #565854",
"@@	c #B2B3AF",
"#@	c #888B84",
"$@	c #8F928D",
"%@	c #979A94",
"&@	c #949790",
"*@	c #C3C4C3",
"=@	c #B6B6B4",
"-@	c #C3C3C2",
";@	c #A5A7A4",
">@	c #AAACA9",
",@	c #ABADAA",
"'@	c #888B87",
")@	c #B6B8B3",
"!@	c #C1C4BF",
"~@	c #D1D3CF",
"{@	c #BBBEBA",
"]@	c #B5B7B3",
"^@	c #8C8F87",
"/@	c #92958F",
"(@	c #9B9E98",
"_@	c #D0D0CE",
":@	c #CCCCCB",
"<@	c #DFDFDF",
"[@	c #C4C6C3",
"}@	c #C0C1C0",
"|@	c #DCDDDC",
"1@	c #CACAC8",
"2@	c #CACAC9",
"3@	c #D3D4D3",
"4@	c #BBBDBA",
"5@	c #DDDDDD",
"6@	c #BCBDBA",
"7@	c #BDBEBB",
"8@	c #868783",
"9@	c #BDC0BA",
"0@	c #C4C7C2",
"a@	c #D5D6D3",
"b@	c #B6B8B5",
"c@	c #B7BAB5",
"d@	c #939490",
"e@	c #9FA39C",
"f@	c #91948D",
"g@	c #E0E0DF",
"h@	c #D1D1D0",
"i@	c #C5C5C3",
"j@	c #CECFCE",
"k@	c #D7D8D7",
"l@	c #DEDEDE",
"m@	c #BDBEBD",
"n@	c #DEDFDE",
"o@	c #CECFCD",
"p@	c #D8D8D7",
"q@	c #D6D7D6",
"r@	c #D3D3D2",
"s@	c #D4D5D4",
"t@	c #D7D7D6",
"u@	c #D5D7D5",
"v@	c #CCCECB",
"w@	c #8D908B",
"x@	c #C2C4BF",
"y@	c #C7CAC5",
"z@	c #D7D8D5",
"A@	c #B3B5AF",
"B@	c #B9BCB6",
"C@	c #9B9D97",
"D@	c #989C95",
"E@	c #A5A8A1",
"F@	c #959891",
"G@	c #ECECEC",
"H@	c #DBDCDB",
"I@	c #D2D3D0",
"J@	c #DFE0DF",
"K@	c #E0E0DE",
"L@	c #A2A39F",
"M@	c #BEC0BD",
"N@	c #D4D4D3",
"O@	c #CFD1CF",
"P@	c #CBCBC9",
"Q@	c #D9D9D8",
"R@	c #DBDBD9",
"S@	c #939690",
"T@	c #C9CAC4",
"U@	c #CBCDC8",
"V@	c #D9DCD8",
"W@	c #AEB1AC",
"X@	c #BBBDB8",
"Y@	c #A2A59F",
"Z@	c #9EA09B",
"`@	c #A9ADA6",
" #	c #9FA29C",
".#	c #B9BAB7",
"+#	c #DDDDDC",
"@#	c #DCDCDB",
"##	c #E8E9E8",
"$#	c #E2E2E1",
"%#	c #CACCC9",
"&#	c #D0D1CE",
"*#	c #CFD0CE",
"=#	c #F2F2F2",
"-#	c #BBBCBA",
";#	c #C3C5C1",
">#	c #CACBC9",
",#	c #E8E8E7",
"'#	c #919590",
")#	c #AAAEA6",
"!#	c #CBCECA",
"~#	c #CDD0CA",
"{#	c #DBDDD9",
"]#	c #ACADA8",
"^#	c #B8BBB7",
"/#	c #ABAEA8",
"(#	c #9FA29B",
"_#	c #ABAFA8",
":#	c #BFC0BD",
"<#	c #FCFCFC",
"[#	c #EFEFEF",
"}#	c #F2F2F0",
"|#	c #C6C7C5",
"1#	c #9DA099",
"2#	c #CFD0CD",
"3#	c #EEEEED",
"4#	c #DADBDA",
"5#	c #EBEBEB",
"6#	c #D2D4D1",
"7#	c #D8DAD7",
"8#	c #BEBFBC",
"9#	c #F1F1F1",
"0#	c #B4B8B1",
"a#	c #D0D3CD",
"b#	c #DEDEDB",
"c#	c #A7A7A2",
"d#	c #B9BAB5",
"e#	c #B1B4B0",
"f#	c #A5A69F",
"g#	c #A8ACA7",
"h#	c #CFCFCC",
"i#	c #A3A69F",
"j#	c #E3E4E3",
"k#	c #E3E3E2",
"l#	c #FBFBFB",
"m#	c #989C97",
"n#	c #B5B9B1",
"o#	c #B0B1AD",
"p#	c #EDEDED",
"q#	c #EDEDEC",
"r#	c #D6D8D5",
"s#	c #999C96",
"t#	c #CBCCC9",
"u#	c #F0F0F0",
"v#	c #B9BAB6",
"w#	c #A8ACA5",
"x#	c #D0D1CF",
"y#	c #ACB0A9",
"z#	c #D4D7D1",
"A#	c #E0E1DE",
"B#	c #9D9F9D",
"C#	c #B9BBB6",
"D#	c #A6AAA3",
"E#	c #A1A59E",
"F#	c #EEEEEE",
"G#	c #BDBFBC",
"H#	c #ABAEA7",
"I#	c #DFE0DE",
"J#	c #E2E3E2",
"K#	c #A3A79F",
"L#	c #B9BDB5",
"M#	c #A6A8A2",
"N#	c #E0E1E0",
"O#	c #DADAD9",
"P#	c #E7E8E7",
"Q#	c #ECECEB",
"R#	c #9CA098",
"S#	c #D8DAD8",
"T#	c #B6B9B5",
"U#	c #A5A8A2",
"V#	c #D6D9D3",
"W#	c #E1E2DE",
"X#	c #969892",
"Y#	c #A5A9A2",
"Z#	c #B6BAB2",
"`#	c #B9BBB8",
" $	c #CDCECC",
".$	c #B4B7B3",
"+$	c #A0A49E",
"@$	c #E1E2E1",
"#$	c #DCDEDC",
"$$	c #E6E6E4",
"%$	c #B4B6B1",
"&$	c #ABAEA9",
"*$	c #9C9F98",
"=$	c #C3C7BE",
"-$	c #E1E1DD",
";$	c #8B8B89",
">$	c #C0C0BB",
",$	c #A4A8A0",
"'$	c #9C9E98",
")$	c #A6A9A6",
"!$	c #9FA39B",
"~$	c #B1B5AD",
"{$	c #AEAFAB",
"]$	c #989B96",
"^$	c #A0A49C",
"/$	c #B3B6AF",
"($	c #C5C6C3",
"_$	c #CBCCCA",
":$	c #989B95",
"<$	c #A3A5A0",
"[$	c #A6A9A4",
"}$	c #A6AAA2",
"|$	c #999D95",
"1$	c #C2C3C1",
"2$	c #A5A8A3",
"3$	c #A9ABA7",
"4$	c #C8CBC4",
"5$	c #7C7E7A",
"6$	c #AEB2AA",
"7$	c #A7ABA4",
"8$	c #C9CDC8",
"9$	c #D7DAD4",
"0$	c #DFE0DD",
"a$	c #72746E",
"b$	c #CCD0CB",
"c$	c #DADCD8",
"d$	c #DDDEDA",
"e$	c #626460",
"f$	c #BFC1BB",
"g$	c #A0A59E",
"h$	c #CFD1CC",
"i$	c #DBDED8",
"j$	c #DBDCD8",
"k$	c #585A56",
"l$	c #A1A49D",
"m$	c #D0D2CD",
"n$	c #DEE0DA",
"o$	c #D5D6D1",
"p$	c #C0C0BD",
"q$	c #9FA19A",
"r$	c #B4B8B0",
"s$	c #B2B6AE",
"t$	c #CFD1CB",
"u$	c #D3D5D0",
"v$	c #DEDFDB",
"w$	c #CECFCB",
"x$	c #BABBB7",
"y$	c #959890",
"z$	c #A6A9A2",
"A$	c #C8CAC6",
"B$	c #D9DAD6",
"C$	c #C5C7C4",
"D$	c #B4B6B3",
"E$	c #AEB1AD",
"F$	c #B0B3AB",
"G$	c #AFB2AA",
"H$	c #AFB1AB",
"I$	c #B0B3AF",
"J$	c #B5B6B0",
"K$	c #B5B6B2",
"L$	c #C0C3BE",
"M$	c #D8D8D5",
"N$	c #C1C3BE",
"O$	c #C2C3BF",
"P$	c #C3C4C0",
"Q$	c #BBBDB9",
"R$	c #D9DAD8",
"S$	c #666963",
"T$	c #CCCCC9",
"U$	c #C8CBC7",
"V$	c #C8C9C6",
"W$	c #C9CAC7",
"X$	c #CECFCC",
"Y$	c #E1E1E0",
"Z$	c #80827F",
"`$	c #454845",
" %	c #D6D6D3",
".%	c #DBDCDA",
"+%	c #DADBD9",
"@%	c #DCDCDA",
"#%	c #D2D3CF",
"$%	c #454743",
"%%	c #444642",
"&%	c #474845",
"*%	c #454643",
"=%	c #464845",
"-%	c #40423E",
"                                                                                                ",
"                  . + + + + + + + + + + + + + + + + + + + + + + + + + + + @                     ",
"                  + # # # # # # # # $ $ $ $ $ $ $ $ $ $ $ $ % % % % % % % +                     ",
"                  + $ & * * * * * * = = = = = = - - - - - - - ; ; ; ; ; % +                     ",
"                  + % = > , , , , , , ' ' ' ' ' ' ' ' ' ' ' ' ) ) ) ! ~ { +                     ",
"                  + % ; ; ] ] ] ] ] ] ] ~ ~ ~ ~ ~ ~ ^ ^ ^ ^ ^ ^ / / / / ( +                     ",
"          _ : < [ + { ~ ! ) } } } } } } | | | | | | , 1 1 1 1 1 2 2 2 2 3 4 5 6 7 8             ",
"        9 0 a b b c * d d d d e e e e e e f f f f f f g g g g g g h h h * i j k l m [           ",
"        9 n k k k o p q r s s t t t t t t u u u u u u u u u v w w , , , x y j k k k z A         ",
"      B C k k k k D E F F F F F G G G G G G H H H H H H I I I I I I J J K L j k k k a M         ",
"      N O P k Q R S | T T T T T v v v v v v s s s s s s t t t t t t t t U S V k k k k W         ",
"      X Y k k Z `  ... . . . . . . . . . . . . . . . . . . . . . . . . .+. .@.#.k k k $.M       ",
"    %.&.*.k k k k k k k k k k k k k k k k k k k k k k k k k k k k k k k k k k k k k k k =.      ",
"    -.;.>.k k k k k k k k k k k k k k k k k k k k k k k k k k k k k k k k k ,.'.).!.~.P {.].    ",
"    ^./.k k k k k k k k k k k k k k k k k k k k k k k k k k k k k k k k k k (._.:.<.[.}.|.1.    ",
"  9 2.3.k k k k k k k k k k k k k k k k k k k k k k k k k k k k k k k k k k 4.5.6.7.8.9.*.0.9   ",
"  < a.b.c.c.c.c.c.c.c.c.c.c.c.c.c.c.c.c.c.c.c.c.c.c.c.c.c.c.c.c.c.c.c.c.c.c.d.e.f.g.h.c.i.j.k.  ",
"  7 l.m.n.n.n.n.n.n.n.n.n.n.n.n.n.n.n.n.n.n.n.n.n.n.n.n.n.n.n.n.n.n.n.n.n.n.n.n.n.n.n.n.o.p.q.  ",
"  r.s.t.u.u.u.u.u.u.u.u.u.u.u.u.u.u.u.u.u.u.u.u.u.u.u.u.u.u.u.u.u.u.u.u.u.u.u.u.u.u.u.u.v.w.B   ",
"    x.y.z.z.z.z.z.z.z.z.z.z.z.z.A.B.C.C.D.E.F.G.H.I.I.J.K.L.M.M.N.O.O.P.Q.Q.R.S.T.U.V.W.X.Y.Z.  ",
"    `.6 6  + +`.6 6 6 6 6 6 6 6 6 6 6 6 6 6 6 6 6 6 6 6 6 6 6 6 6 6 6 6 6 6 6 .+++++++@+6 `.    ",
"          #+$+%++ &+*+=+-+;+g >+h ,+'+)+!+~+{+]+{+^+{+/+{+/+{+(+{+(+{+/+{+_+:+<+[+}+|+1+        ",
"          2+3+4+5+4+6+7+8+9+g 0+g a+b+c+d+e+g f+g g+g g+g g+g h+g i+g j+g k+l+m+n+o+p+q+        ",
"          r+s+t+u+v+w+x+y+z+g A+g B+y+C+D+E+g g+g ~+g ~+g ~+g g+g g+g ~+g F+G+H+I+J+p+K+        ",
"          L+M+v+N+O+P+Q+R+S+g )+f 9+T+U+8+V+f W+f X+f X+f X+f W+f W+f X+f Y+N+Z+`+ @.@+@        ",
"          @@#@$@%@&@U+Q+x+*@x =@x 9+!+y+-@;@x >@x ,@x ,@x ,@x >@x >@x ,@x '@%@)@!@~@{@+@        ",
"          ]@^@/@(@/@_@:@<@[@1 }@|@1@2@3@}@4@5@4@|@6@|@7@|@4@5@4@5@9+|@4@|@8@(@9@0@a@b@          ",
"          c@d@%@e@f@g@h@; i@~ j@k@l@m@n@9+o@p@o@q@r@s@j@k@o@p@o@t@,+u@v@k@w@e@x@y@z@A@          ",
"          B@C@D@E@F@G@; H@I@J@K@d = L@- M@K@N@K@O@= P@Q@e K@s@K@,+= v@r@R@S@E@T@U@V@W@          ",
"          X@Y@Z@`@ #( ( .#+#@###- ; 5+$#%###&###*#=#-#p@n@##*###o@=#;#>#,#'#)#!#~#{#]#          ",
"          ^#/#(#_#:#<#[#f@$#n@}#{ |#1#2#J@3#s@3#4#% 0+a@5#3#6#3#7#% 8#8#9#f+0#a#a#b#c#          ",
"          d#e#f#g#$ <#h#i#j#k#l#% m#n#o#p#q#r#3#k#( s#t#u#3#s@3#g@{ v#w#u#x#y#z#z#A#B#          ",
"          ]@C#D#E#F#( G#H#I#J#3 J@K#L#M#N#* O#P#- Q#R#I+F###S#P#] =#T#M#j#4#U#V#V#W#X#          ",
"            {@Y#Z#`#p#:#H#r#] g@ $M#L#L#.$- <@g@; N#+$E@n@@$#$N#$$p#%$0#&$*$=$V#V#-$;$          ",
"            >$,$L#'$)$!$~${$!+]$^$/$L#L#+$($_$:$<$[$}$`@|$w+1$2$3$%$ #L#H#L#4$V#V#W#5$          ",
"            >$i#L#0#L#L#L#Z#H#K#L#L#L#L#L#6$7$+$L#L#L#L#L#L#6$`@L#L#6$L#L#L#8$V#9$0$a$          ",
"            >$i#L#L#L#L#L#L#L#L#L#L#L#L#L#L#L#L#L#L#L#L#L#L#L#L#L#L#L#L#L#L#b$V#c$d$e$          ",
"            f$g$L#L#L#L#L#L#L#L#L#L#L#L#L#L#L#L#L#L#L#L#L#L#L#L#L#L#L#L#L#L#h$V#i$j$k$          ",
"            f$l$L#L#L#L#L#L#L#L#L#L#L#L#L#L#L#L#L#L#L#L#L#L#L#L#L#L#L#L#L#L#m$V#n$o$            ",
"            p$q$r$s$s$s$s$s$s$s$s$s$s$s$s$s$s$s$s$s$s$s$s$s$s$s$s$s$s$s$s$s$t$u$v$w$            ",
"            x$y$z$E@E@E@E@E@E@E@E@E@E@E@E@E@E@E@E@E@E@E@E@E@E@E@E@E@E@E@E@E@A$U@B$C$            ",
"            D${$E$F$G$G$G$H$I$I$I$I$I$I$I$I$J$K$K$K$K$K$K$K$c@^#^#^#^#^#^#^#L$0@M$o@            ",
"            :$N$O$P$O$O$O$O$O$O$O$O$O$O$O$O$O$O$O$O$O$O$O$O$O$O$O$O$O$O$O$O$Q$`+R$.#            ",
"            S$r@&#T$P@P@P@P@P@P@P@U$V$V$V$V$V$V$V$V$V$V$V$V$V$V$V$V$V$V$V$V$W$X$Y$Z$            ",
"            `$h+ %.%+%+%+%+%+%+%+%R@@%@%@%@%@%@%@%@%@%@%@%@%@%@%@%@%@%@%@%@%+%#%Z@$%            ",
"              %%&%$%*%*%*%*%*%*%*%*%*%*%*%*%*%*%*%*%*%*%*%*%*%*%*%*%*%*%*%*%*%=%-%              ",
"                                                                                                ",
"                                                                                                "};
